<?xml version="1.0" standalone="no"?>
<!DOCTYPE svg PUBLIC "-//W3C//DTD SVG 20010904//EN"
 "http://www.w3.org/TR/2001/REC-SVG-20010904/DTD/svg10.dtd">
<svg version="1.0" xmlns="http://www.w3.org/2000/svg"
 width="246.000000pt" height="274.000000pt" viewBox="0 0 246.000000 274.000000"
 preserveAspectRatio="xMidYMid meet">
<metadata>
Created by potrace 1.16, written by Peter Selinger 2001-2019
</metadata>
<g transform="translate(0.000000,274.000000) scale(0.100000,-0.100000)"
fill="#000000" stroke="none">
<path d="M255 2548 c-3 -7 -4 -144 -3 -303 l3 -290 595 -5 c588 -5 595 -5 636
-27 90 -48 141 -142 131 -241 -6 -68 -24 -109 -71 -155 -66 -67 -87 -72 -326
-75 l-216 -4 -118 -299 -118 -299 43 -53 c24 -29 134 -162 244 -295 l199 -242
418 0 c230 0 418 3 418 6 0 4 -46 57 -103 118 -121 132 -359 393 -404 446
l-32 37 83 28 c289 93 510 337 570 628 23 109 21 284 -4 381 -82 323 -319 555
-645 633 -60 14 -157 17 -683 20 -503 4 -613 2 -617 -9z"/>
</g>
</svg>
