<?xml version="1.0" standalone="no"?>
<!DOCTYPE svg PUBLIC "-//W3C//DTD SVG 20010904//EN"
 "http://www.w3.org/TR/2001/REC-SVG-20010904/DTD/svg10.dtd">
<svg version="1.0" xmlns="http://www.w3.org/2000/svg"
 width="246.000000pt" height="274.000000pt" viewBox="0 0 246.000000 274.000000"
 preserveAspectRatio="xMidYMid meet">

<g transform="translate(0.000000,274.000000) scale(0.100000,-0.100000)"
fill="#000000" stroke="none">
<path d="M260 2255 l0 -294 583 -3 c566 -3 583 -4 627 -24 127 -59 186 -204
135 -332 -18 -44 -99 -126 -145 -145 -14 -6 -120 -12 -240 -15 l-215 -4 -104
-261 c-58 -144 -110 -276 -118 -294 l-13 -32 241 -290 240 -291 416 0 415 0
-73 81 c-41 44 -92 101 -114 127 -22 26 -110 124 -197 219 l-158 171 72 22
c234 71 433 244 533 463 58 130 70 186 70 352 0 142 -2 156 -32 250 -46 143
-107 242 -217 350 -131 129 -280 207 -447 234 -39 7 -297 11 -661 11 l-598 0
0 -295z"/>
</g>
</svg>
