<svg version="1.1" id="Layer_1" xmlns="http://www.w3.org/2000/svg" xmlns:xlink="http://www.w3.org/1999/xlink" x="0px" y="0px"
	 width="100%" viewBox="0 0 246 274" enable-background="new 0 0 246 274" xml:space="preserve">
<path fill="#000000" opacity="1.000000" stroke="none" 
	d="
M145.000000,275.000000 
	C96.666664,275.000000 48.833332,275.000000 1.000000,275.000000 
	C1.000000,183.666672 1.000000,92.333336 1.000000,1.000000 
	C83.000000,1.000000 165.000000,1.000000 247.000000,1.000000 
	C247.000000,92.333336 247.000000,183.666672 247.000000,275.000000 
	C213.166672,275.000000 179.333328,275.000000 145.000000,275.000000 
M121.194054,129.641678 
	C119.809814,129.717255 118.425583,129.792831 116.287262,129.569489 
	C113.146011,129.550278 109.990074,129.341171 106.868950,129.582382 
	C104.965248,129.729507 103.115120,130.569839 100.948776,131.773743 
	C93.625870,150.068939 86.239159,168.339294 79.093864,186.703598 
	C78.482269,188.275467 78.794037,191.025650 79.825623,192.294586 
	C94.609634,210.480164 109.568237,228.524277 124.580780,246.522415 
	C125.510269,247.636749 127.236847,248.743210 128.594849,248.745987 
	C155.060715,248.800278 181.526917,248.689743 208.553619,248.815460 
	C208.745819,248.301880 208.938004,247.788300 208.935425,246.604431 
	C198.722519,235.488052 188.446396,224.428879 178.317566,213.236389 
	C170.788391,204.916595 163.450180,196.424011 156.602875,187.997559 
	C157.122528,187.816650 157.642197,187.635742 158.945724,187.324188 
	C161.633087,186.488770 164.320450,185.653366 167.723938,184.838776 
	C170.472122,183.529755 173.220306,182.220749 176.672318,180.855576 
	C180.346664,178.602310 184.119873,176.494476 187.680374,174.073761 
	C232.811920,143.389572 235.536545,73.761589 193.184052,39.364170 
	C176.212433,25.580330 156.901245,19.207991 135.284393,19.181440 
	C100.787621,19.139071 66.290756,19.170118 31.793926,19.170122 
	C30.172161,19.170122 28.550396,19.170122 26.793985,19.170122 
	C26.793985,39.664577 26.793985,59.670666 26.793985,79.859222 
	C29.112072,79.859222 30.939077,79.859222 32.766083,79.859222 
	C66.762955,79.859222 100.759827,79.855446 134.756699,79.860786 
	C152.276749,79.863533 161.284286,87.790459 163.064835,105.773155 
	C161.008469,111.097046 158.952087,116.420929 156.270782,122.005287 
	C154.518005,123.432457 152.765228,124.859627 150.385056,126.390167 
	C149.258774,126.985329 148.132507,127.580482 146.254974,128.154449 
	C144.352081,128.688477 142.449173,129.222504 139.866669,129.488510 
	C138.910019,129.629608 137.953369,129.770706 136.188156,129.664322 
	C134.790787,129.745132 133.393402,129.825943 131.187790,129.658066 
	C129.790237,129.738129 128.392685,129.818192 126.187149,129.648941 
	C124.789604,129.728348 123.392059,129.807770 121.194054,129.641678 
z"/>
<path fill="#F8F8F8" opacity="1.000000" stroke="none" 
	d="
M163.321472,104.973892 
	C161.284286,87.790459 152.276749,79.863533 134.756699,79.860786 
	C100.759827,79.855446 66.762955,79.859222 32.766083,79.859222 
	C30.939077,79.859222 29.112072,79.859222 26.793985,79.859222 
	C26.793985,59.670666 26.793985,39.664577 26.793985,19.170122 
	C28.550396,19.170122 30.172161,19.170122 31.793926,19.170122 
	C66.290756,19.170118 100.787621,19.139071 135.284393,19.181440 
	C156.901245,19.207991 176.212433,25.580330 193.184052,39.364170 
	C235.536545,73.761589 232.811920,143.389572 187.680374,174.073761 
	C184.119873,176.494476 180.346664,178.602310 176.076752,180.585907 
	C174.987686,178.499985 174.073700,176.685760 174.064972,174.867188 
	C173.964218,153.892456 174.001236,132.917084 174.000290,111.941872 
	C173.999969,104.998276 173.998215,104.998276 166.623932,105.007950 
	C165.278442,104.995903 164.299957,104.984901 163.321472,104.973892 
z"/>
<path fill="#FAFAFA" opacity="1.000000" stroke="none" 
	d="
M156.026917,188.008392 
	C163.450180,196.424011 170.788391,204.916595 178.317566,213.236389 
	C188.446396,224.428879 198.722519,235.488052 208.696014,247.229645 
	C208.302094,248.107590 208.147583,248.360291 207.993057,248.612976 
	C181.526917,248.689743 155.060715,248.800278 128.594849,248.745987 
	C127.236847,248.743210 125.510269,247.636749 124.580780,246.522415 
	C109.568237,228.524277 94.609634,210.480164 79.825623,192.294586 
	C78.794037,191.025650 78.482269,188.275467 79.093864,186.703598 
	C86.239159,168.339294 93.625870,150.068939 101.431946,131.447266 
	C106.574478,135.510513 111.233833,139.900223 116.040268,144.560013 
	C117.431007,146.231110 118.674652,147.632141 120.072830,149.331070 
	C122.460136,151.827499 124.692917,154.026031 127.074051,156.516632 
	C128.777313,158.318665 130.332214,159.828629 131.932770,161.631439 
	C132.621613,162.629715 133.264816,163.335159 133.971191,164.375763 
	C136.011459,166.814941 137.988525,168.918961 140.111694,171.313034 
	C141.817078,173.085892 143.376343,174.568680 144.988220,176.385132 
	C146.685944,178.484940 148.331070,180.251114 150.124542,182.311050 
	C152.190903,184.406006 154.108917,186.207199 156.026917,188.008392 
z"/>
<path fill="#E7E7E7" opacity="1.000000" stroke="none" 
	d="
M163.193146,105.373520 
	C164.299957,104.984901 165.278442,104.995903 166.627014,105.475578 
	C167.000671,132.235474 167.004242,158.526718 167.007812,184.817963 
	C164.320450,185.653366 161.633087,186.488770 158.391357,186.969788 
	C157.558197,184.512741 157.047165,182.411255 157.036789,180.307281 
	C156.940613,160.786713 156.930679,141.265701 156.895721,121.744820 
	C158.952087,116.420929 161.008469,111.097046 163.193146,105.373520 
z"/>
<path fill="#F1F0F0" opacity="1.000000" stroke="none" 
	d="
M167.365875,184.828369 
	C167.004242,158.526718 167.000671,132.235474 166.994019,105.476616 
	C173.998215,104.998276 173.999969,104.998276 174.000290,111.941872 
	C174.001236,132.917084 173.964218,153.892456 174.064972,174.867188 
	C174.073700,176.685760 174.987686,178.499985 175.724838,180.613983 
	C173.220306,182.220749 170.472122,183.529755 167.365875,184.828369 
z"/>
<path fill="#E0E0E0" opacity="1.000000" stroke="none" 
	d="
M156.583252,121.875053 
	C156.930679,141.265701 156.940613,160.786713 157.036789,180.307281 
	C157.047165,182.411255 157.558197,184.512741 157.999420,187.035110 
	C157.642197,187.635742 157.122528,187.816650 156.314896,188.002975 
	C154.108917,186.207199 152.190903,184.406006 150.471405,182.111328 
	C151.113098,180.094482 151.931488,178.573563 151.941330,177.047424 
	C152.037704,162.075378 152.035233,147.102280 151.955750,132.130020 
	C151.945404,130.180664 151.341461,128.234467 151.012451,126.286797 
	C152.765228,124.859627 154.518005,123.432457 156.583252,121.875053 
z"/>
<path fill="#DBDADA" opacity="1.000000" stroke="none" 
	d="
M150.698761,126.338486 
	C151.341461,128.234467 151.945404,130.180664 151.955750,132.130020 
	C152.035233,147.102280 152.037704,162.075378 151.941330,177.047424 
	C151.931488,178.573563 151.113098,180.094482 150.323059,181.817566 
	C148.331070,180.251114 146.685944,178.484940 145.297546,176.139221 
	C146.035995,173.350784 146.913284,171.145721 146.934708,168.932388 
	C147.066116,155.347855 147.003952,141.761429 147.006226,128.175644 
	C148.132507,127.580482 149.258774,126.985329 150.698761,126.338486 
z"/>
<path fill="#D5D4D4" opacity="1.000000" stroke="none" 
	d="
M146.630600,128.165039 
	C147.003952,141.761429 147.066116,155.347855 146.934708,168.932388 
	C146.913284,171.145721 146.035995,173.350784 145.244965,175.805573 
	C143.376343,174.568680 141.817078,173.085892 140.459717,171.113083 
	C141.107346,169.270981 141.926727,167.922470 141.939728,166.566238 
	C142.044678,155.613571 142.047043,144.658966 141.933685,133.706451 
	C141.920013,132.385178 141.030075,131.072952 140.546280,129.756531 
	C142.449173,129.222504 144.352081,128.688477 146.630600,128.165039 
z"/>
<path fill="#CFCECE" opacity="1.000000" stroke="none" 
	d="
M140.206482,129.622528 
	C141.030075,131.072952 141.920013,132.385178 141.933685,133.706451 
	C142.047043,144.658966 142.044678,155.613571 141.939728,166.566238 
	C141.926727,167.922470 141.107346,169.270981 140.313614,170.823013 
	C137.988525,168.918961 136.011459,166.814941 134.352325,164.296356 
	C135.446701,161.492432 136.820663,159.120956 136.892807,156.710541 
	C137.159943,147.784576 136.997650,138.845779 136.996719,129.911804 
	C137.953369,129.770706 138.910019,129.629608 140.206482,129.622528 
z"/>
<path fill="#CAC9C9" opacity="1.000000" stroke="none" 
	d="
M136.592438,129.788055 
	C136.997650,138.845779 137.159943,147.784576 136.892807,156.710541 
	C136.820663,159.120956 135.446701,161.492432 134.289154,163.961182 
	C133.264816,163.335159 132.621613,162.629715 131.969666,161.126892 
	C131.972610,150.188583 131.984329,140.047668 131.996033,129.906769 
	C133.393402,129.825943 134.790787,129.745132 136.592438,129.788055 
z"/>
<path fill="#C4C4C4" opacity="1.000000" stroke="none" 
	d="
M131.591919,129.782410 
	C131.984329,140.047668 131.972610,150.188583 131.923996,160.834045 
	C130.332214,159.828629 128.777313,158.318665 127.099045,156.024963 
	C126.982155,146.793564 126.988640,138.345917 126.995125,129.898270 
	C128.392685,129.818192 129.790237,129.738129 131.591919,129.782410 
z"/>
<path fill="#B0B0B0" opacity="1.000000" stroke="none" 
	d="
M115.893188,144.289932 
	C111.233833,139.900223 106.574478,135.510513 101.578026,131.109818 
	C103.115120,130.569839 104.965248,129.729507 106.868950,129.582382 
	C109.990074,129.341171 113.146011,129.550278 116.651939,130.189514 
	C116.642136,135.303009 116.267662,139.796463 115.893188,144.289932 
z"/>
<path fill="#BFBEBE" opacity="1.000000" stroke="none" 
	d="
M126.591141,129.773605 
	C126.988640,138.345917 126.982155,146.793564 126.950684,155.732880 
	C124.692917,154.026031 122.460136,151.827499 120.475372,149.233124 
	C121.148880,147.348816 121.892670,145.870636 121.941185,144.369995 
	C122.097122,139.546860 121.996300,134.715424 121.994514,129.887192 
	C123.392059,129.807770 124.789604,129.728348 126.591141,129.773605 
z"/>
<path fill="#B9B9B9" opacity="1.000000" stroke="none" 
	d="
M121.594284,129.764435 
	C121.996300,134.715424 122.097122,139.546860 121.941185,144.369995 
	C121.892670,145.870636 121.148880,147.348816 120.320839,148.935226 
	C118.674652,147.632141 117.431007,146.231110 116.040268,144.560013 
	C116.267662,139.796463 116.642136,135.303009 117.028976,130.338959 
	C118.425583,129.792831 119.809814,129.717255 121.594284,129.764435 
z"/>
<path fill="#F5F5F5" opacity="1.000000" stroke="none" 
	d="
M208.273346,248.714218 
	C208.147583,248.360291 208.302094,248.107590 208.793411,247.564804 
	C208.938004,247.788300 208.745819,248.301880 208.273346,248.714218 
z"/>
</svg>